# xmcd
#
# Track frame offsets: 
#        150
#        12149
#        23628
#        40541
#        78536
#        101743
#        113297
#        124996
#        149425
#        170924
#        191340
#        218996
#        264974
#        271464
#        293483
#        317074
#        332446
#        351015
#        372824
#        386673
#
# Disc length: 5382 seconds
#
# Revision: 0
# Processed by: cddbd v1.5.2PL0 Copyright (c) Steve Scherf et al.
# Submitted via: ExactAudioCopy v1.3
#
DISCID=1e150414
DTITLE=B.B.King - Anthology
DYEAR=1900
DGENRE=
TTITLE0=How Blue Can You Get 
TTITLE1=Paying The Cost To Be A Boss
TTITLE2=Sweet Little Angel (Live At The Regal)
TTITLE3=Why I Sing The Blues
TTITLE4=Don't Answer The Door
TTITLE5=Please Accept My Love
TTITLE6=Never Trust A Woman
TTITLE7=The Thrill Is Gone
TTITLE8=Gambler's Blues
TTITLE9=Hummingbird
TTITLE10=Sweet Sixteen (Parts One and Two)
TTITLE11=Lucille
TTITLE12=Nobody Loves Me But My Mother
TTITLE13=Chains And Things
TTITLE14=Ghetto Woman
TTITLE15=I Got Some Help I Don't Need (Single edit)
TTITLE16=Guess Who
TTITLE17=I'll Survive
TTITLE18=Better Not Look Down
TTITLE19=There Must Be A Better World Somewhere
EXTD=
EXTT0=
EXTT1=
EXTT2=
EXTT3=
EXTT4=
EXTT5=
EXTT6=
EXTT7=
EXTT8=
EXTT9=
EXTT10=
EXTT11=
EXTT12=
EXTT13=
EXTT14=
EXTT15=
EXTT16=
EXTT17=
EXTT18=
EXTT19=
PLAYORDER=
